<svg id="Layer_1" data-name="Layer 1" xmlns="http://www.w3.org/2000/svg" viewBox="0 0 604.5 604.5"><defs><style>.cls-1{fill:#b7d0f4;}.cls-2{fill:#dde4f0;}.cls-3{fill:none;stroke:#5f69e7;stroke-miterlimit:10;}.cls-4{fill:#5f69e7;}.cls-5{fill:#444de3;}.cls-6{fill:#eeba47;}.cls-7{fill:#d89e2b;}.cls-8{fill:#2180ef;}</style></defs><rect class="cls-1" x="65.73" y="111.46" width="474.11" height="142.11" rx="10.5"/><rect class="cls-2" x="88.99" y="133.47" width="121.99" height="98.09" rx="4.43"/><line class="cls-3" x1="234.24" y1="153.59" x2="508.39" y2="153.59"/><line class="cls-3" x1="234.24" y1="182.83" x2="508.39" y2="182.83"/><line class="cls-3" x1="234.24" y1="212.07" x2="508.39" y2="212.07"/><path class="cls-4" d="M150.3,142.9a39.93,39.93,0,1,0,39.93,39.93A39.93,39.93,0,0,0,150.3,142.9Zm14,48.95a16.72,16.72,0,0,1-5,5,16.6,16.6,0,0,1-9,2.65,16.74,16.74,0,0,1-3.56-.38,16.51,16.51,0,0,1-5.45-2.26,16.82,16.82,0,0,1-5-5,16.75,16.75,0,0,1-2.67-9.06,17.21,17.21,0,0,1,.37-3.54,16.53,16.53,0,0,1,2.29-5.5,17,17,0,0,1,5-5,16.31,16.31,0,0,1,5.5-2.28,16.55,16.55,0,0,1,3.54-.38,16.7,16.7,0,0,1,9,2.67,16.74,16.74,0,0,1,5,5,16.51,16.51,0,0,1,2.26,5.45,16.74,16.74,0,0,1,.38,3.56,16.6,16.6,0,0,1-2.65,9Z"/><path class="cls-1" d="M185.43,167.83c-1.8-4.34-9.07-5.14-12.34-8.42s-4.08-10.53-8.42-12.34c-4.19-1.73-9.87,2.77-14.68,2.77s-10.5-4.5-14.69-2.77c-4.34,1.81-5.14,9.07-8.42,12.34s-10.54,4.08-12.34,8.42c-1.73,4.19,2.77,9.87,2.77,14.69s-4.5,10.49-2.77,14.68c1.8,4.34,9.07,5.15,12.34,8.42S131,216.16,135.3,218c4.19,1.74,9.87-2.77,14.69-2.77s10.49,4.51,14.68,2.77c4.34-1.8,5.14-9.07,8.42-12.34s10.54-4.08,12.34-8.42c1.74-4.19-2.77-9.87-2.77-14.68S187.17,172,185.43,167.83ZM167,186.54a16.83,16.83,0,0,1-2.32,5.57c.6,2.16,1.48,4.52.44,5.55s-3.39.16-5.56-.43a16.88,16.88,0,0,1-5.56,2.31c-1.09,2-2.16,4.26-3.68,4.26s-2.59-2.29-3.68-4.24a16.87,16.87,0,0,1-5.59-2.33c-2.16.6-4.51,1.47-5.54.43s-.17-3.37.42-5.52a16.83,16.83,0,0,1-2.34-5.62c-1.95-1.09-4.21-2.15-4.21-3.66s2.25-2.56,4.19-3.66a17,17,0,0,1,2.35-5.65c-.58-2.15-1.44-4.47-.41-5.5s3.35-.17,5.5.42l5.65-2.35c1.09-2,2.15-4.2,3.66-4.2s2.57,2.26,3.66,4.21l5.62,2.34c2.15-.59,4.5-1.45,5.52-.42s.17,3.38-.43,5.54a16.87,16.87,0,0,1,2.33,5.59c1.95,1.1,4.24,2.15,4.24,3.68S169,185.45,167,186.54Z"/><rect class="cls-1" x="65.73" y="279.96" width="474.11" height="142.11" rx="10.5"/><rect class="cls-2" x="88.99" y="301.97" width="121.99" height="98.09" rx="4.43"/><line class="cls-3" x1="234.24" y1="322.09" x2="508.39" y2="322.09"/><line class="cls-3" x1="234.24" y1="351.33" x2="508.39" y2="351.33"/><line class="cls-3" x1="234.24" y1="380.57" x2="508.39" y2="380.57"/><path class="cls-4" d="M150.3,311.4a39.93,39.93,0,1,0,39.93,39.93A39.93,39.93,0,0,0,150.3,311.4Zm14,49a16.67,16.67,0,0,1-10.41,7.25,16.35,16.35,0,0,1-3.6.39,16.74,16.74,0,0,1-3.56-.38,16.32,16.32,0,0,1-5.45-2.27,16.59,16.59,0,0,1-5-5,16.7,16.7,0,0,1-2.67-9.05,17.14,17.14,0,0,1,.37-3.54,16.45,16.45,0,0,1,2.29-5.5,16.87,16.87,0,0,1,5-5,16.53,16.53,0,0,1,5.5-2.29,17.21,17.21,0,0,1,3.54-.37,16.7,16.7,0,0,1,9,2.67,16.62,16.62,0,0,1,5,5,16.42,16.42,0,0,1,2.26,5.45,16.67,16.67,0,0,1,.38,3.56,16.6,16.6,0,0,1-2.65,9Z"/><path class="cls-1" d="M185.43,336.33c-1.8-4.34-9.07-5.15-12.34-8.42s-4.08-10.54-8.42-12.34c-4.19-1.74-9.87,2.77-14.68,2.77s-10.5-4.51-14.69-2.77c-4.34,1.8-5.14,9.07-8.42,12.34s-10.54,4.08-12.34,8.42,2.77,9.87,2.77,14.68-4.5,10.5-2.77,14.69c1.8,4.34,9.07,5.14,12.34,8.42s4.08,10.54,8.42,12.34c4.19,1.73,9.87-2.77,14.69-2.77s10.49,4.5,14.68,2.77c4.34-1.8,5.14-9.07,8.42-12.34s10.54-4.08,12.34-8.42c1.74-4.19-2.77-9.87-2.77-14.69S187.17,340.52,185.43,336.33ZM167,355a16.69,16.69,0,0,1-2.32,5.56c.6,2.17,1.48,4.53.44,5.56s-3.39.16-5.56-.44A16.69,16.69,0,0,1,154,368c-1.09,2-2.16,4.26-3.68,4.26s-2.59-2.3-3.68-4.25a16.85,16.85,0,0,1-5.59-2.32c-2.16.59-4.51,1.47-5.54.43s-.17-3.37.42-5.53A16.78,16.78,0,0,1,133.6,355c-1.95-1.09-4.21-2.15-4.21-3.66s2.25-2.57,4.19-3.66a16.92,16.92,0,0,1,2.35-5.65c-.58-2.15-1.44-4.47-.41-5.5s3.35-.17,5.5.41l5.65-2.35c1.09-1.94,2.15-4.19,3.66-4.19s2.57,2.26,3.66,4.21l5.62,2.34c2.15-.59,4.5-1.45,5.52-.42s.17,3.38-.43,5.53a16.92,16.92,0,0,1,2.33,5.6c1.95,1.09,4.24,2.15,4.24,3.68S169,354,167,355Z"/><path class="cls-5" d="M214.83,420.72c13.18,18.93,44.8,21.34,57.23,15.85s24.39.58,53.25-14.94c3-1.61-4.23-6-1.78-8.17,22.71-20.14,19.37-56.59-6.27-72.82L237,289.85l-72.53,57.5Z"/><path class="cls-6" d="M100,113.43a85.69,85.69,0,0,0,79.52,149.91l33.49,71a3.91,3.91,0,0,0,5.22,1.87l7.5-3.53a3.92,3.92,0,0,0,1.87-5.22l-33.51-71.05q3.38-2,6.61-4.35A85.68,85.68,0,0,0,100,113.43Zm91.68,126.23q-2.06,1.49-4.17,2.81a70.36,70.36,0,1,1,4.17-2.81Z"/><rect class="cls-7" x="203.75" y="277.03" width="47.12" height="152.79" rx="7.7" transform="translate(-129.04 130.73) rotate(-25.25)"/><path class="cls-8" d="M325.31,421.63s-26.5,16.81-52.37-19.31S255,323.38,255,323.38l-33.94-19.64s-23.06,17.67-40,21.42c-8.45,1.88-11.38-1.54-12.2-5.43a11.51,11.51,0,0,1,4.09-11.2L218.92,271a21.75,21.75,0,0,1,23.21-2.75L290,291.28l78,100.78,82.38,66.34-70.42,66.43L268,437.92l25.44-73.77"/><path class="cls-8" d="M172.69,380.13a8.2,8.2,0,0,1,4.33-8.69,267.79,267.79,0,0,1,36.46-15.35c23.35-7.72,36.53-12.18,39.65-6.92s-3.83,23-27.57,31.22l-23.75,8.25,23.29,3.18-31.2,5.24-17.61-11.47a8.18,8.18,0,0,1-3.6-5.46Z"/><path class="cls-1" d="M244.05,349.38l-5.84,1.36a4.22,4.22,0,0,0-3.2,4.81h0a4.22,4.22,0,0,0,6.48,2.83l5-3.3a3.15,3.15,0,0,0,1.36-3.25h0A3.16,3.16,0,0,0,244.05,349.38Z"/><path class="cls-8" d="M162,355.06a9.81,9.81,0,0,1,5.11-10.28,308.33,308.33,0,0,1,42.38-18.4c27.15-9.29,42.47-14.64,46.06-8.43s-4.57,27.25-32.18,37.17L195.71,365l27,3.64-36.24,6.39-20.28-13.42a9.85,9.85,0,0,1-4.26-6.58Z"/><path class="cls-1" d="M245,318.25l-6.79,1.65a5.06,5.06,0,0,0-3.75,5.71h0a4.85,4.85,0,0,0,7.51,3.32l5.83-3.93a3.84,3.84,0,0,0,1.6-3.87h0A3.62,3.62,0,0,0,245,318.25Z"/><path class="cls-8" d="M187.82,391.83a245.84,245.84,0,0,1,41-13c22.66-5,35.46-7.89,37.88-2.66s-5.81,21.18-28.9,26.63l-23.08,5.44,21.55,5.24-29.78,1.9-11.89-9.61a18.12,18.12,0,0,1-6.69-12.86Z"/><path class="cls-1" d="M258.15,375.46l-5.61.71a4,4,0,0,0-3.47,4.2h0a4,4,0,0,0,5.81,3.28l5-2.6a3,3,0,0,0,1.58-2.93h0A3,3,0,0,0,258.15,375.46Z"/><path class="cls-8" d="M205.15,408.81s35.21-7.2,50.45-7.63,28.5,9.18,11.87,15.54-30.92,10.77-30.92,10.77a85.05,85.05,0,0,1-19.29,2c-9.74-.28-20.62-5.18-18.41-11.89S205.15,408.81,205.15,408.81Z"/><path class="cls-1" d="M268.62,403.94l-5.31-1.35a3.85,3.85,0,0,0-4.62,2.54h0a3.85,3.85,0,0,0,4.06,5l5.45-.56a2.86,2.86,0,0,0,2.47-2.06h0A2.89,2.89,0,0,0,268.62,403.94Z"/><path class="cls-1" d="M173,308.68l14.73-12.17a2.1,2.1,0,0,1,2,1.71C190.15,300,177,312.65,173,308.68Z"/><ellipse class="cls-1" cx="415.02" cy="491.82" rx="48.64" ry="16.21" transform="translate(-226.21 437.51) rotate(-45)"/></svg>