<svg id="Layer_1" data-name="Layer 1" xmlns="http://www.w3.org/2000/svg" viewBox="0 0 604.5 604.5"><defs><style>.cls-1{fill:#bb6759;}.cls-2{fill:#444de3;}.cls-3{fill:#2180ef;}.cls-4,.cls-8{fill:none;}.cls-4{stroke:#444de3;stroke-linecap:round;stroke-linejoin:round;}.cls-5{fill:#dde4f0;}.cls-6{fill:#d89e2b;}.cls-7{fill:#eeba47;}.cls-8{stroke:#5f69e7;stroke-miterlimit:10;}.cls-9{fill:#c9850d;}.cls-10{fill:#5f69e7;}</style></defs><path class="cls-1" d="M445.52,435.9h-1.25a6.33,6.33,0,0,0-6,4.34l-1.88,5.65a5.88,5.88,0,0,0,1.07,5.64h0Z"/><path class="cls-2" d="M317.81,583.55s-33.36-54.22-44.27-74.07-61.15-58.61-72.27-70.4c-5.3-5.62-9-9.92-11.37-12.87a3.14,3.14,0,0,1,2.36-5.11c3.43-.09,7.26-.1,8.35.24,2.12.66,34.44,26.6,34.44,26.6l108.36,65.71Z"/><path class="cls-2" d="M345,583.55s-33.36-54.22-44.27-74.07-49-51.07-60.12-62.86c-5.3-5.63-9.65-18.13-12-21.09-1.64-2,1.37-4.42,4-4.48,3.43-.1,6.18,1.93,7.28,2.27,2.12.67,22.42,24.62,22.42,24.62l108.37,65.71Z"/><path class="cls-3" d="M144.1,427.43c2.92-2.65,8-1.75,8-1.75L230.39,447l113.42,22.63c10.9,2.64,29.92,11.76,46.66-6.71,44.45-49.07,57.73-36.08,58.59-34.64s-81.39,153.85-81.39,153.85l-49.86,1.41a94.52,94.52,0,0,1-3.3-22.86c-3.56-22.24-9.58-53.59-16.09-60-8.15-7.93-53-14.22-71.62-16.52a37.72,37.72,0,0,1-15.17-5.34l-64.08-39.54C142.71,435.2,141.19,430.07,144.1,427.43Z"/><polygon class="cls-3" points="312.44 493.07 237.25 485.59 267.18 504.54 272.72 511.32 276.94 515.52 317.61 583.13 312.44 493.07"/><polygon class="cls-3" points="382.64 554.34 391.66 583.13 317.61 583.13 382.64 554.34"/><path class="cls-4" d="M237.25,485.59c13.75,2.5,32.51,5.57,51.66,8.19"/><path class="cls-5" d="M144.48,436h0a4.81,4.81,0,0,1,6.91-.41h0a8.08,8.08,0,0,1,2.52,7.29l-.06.36-6.3-3.89-1.85-1.81Z"/><path class="cls-5" d="M447.39,432l-3.63,4.14a5.87,5.87,0,0,0-1.19,5.57"/><polygon class="cls-6" points="240.97 122.09 240.97 90.22 263.35 67.84 263.35 127 240.38 127 240.97 122.09"/><polygon class="cls-6" points="350.86 122.09 350.86 90.22 328.48 67.84 328.48 127 351.45 127 350.86 122.09"/><rect class="cls-6" x="263.35" y="67.84" width="65.13" height="21.74"/><rect class="cls-6" x="188.04" y="116.16" width="274.54" height="309.37"/><rect class="cls-7" x="125.55" y="116.16" width="274.54" height="309.37"/><line class="cls-8" x1="431.99" y1="116.16" x2="431.99" y2="425.53"/><polygon class="cls-9" points="400.6 425.02 431.99 382.73 463.09 425.02 400.6 425.02"/><polygon class="cls-7" points="210.52 120.21 210.52 88.34 232.9 65.97 232.9 125.12 209.93 125.12 210.52 120.21"/><polygon class="cls-7" points="320.41 120.21 320.41 88.34 298.03 65.97 298.03 125.12 321 125.12 320.41 120.21"/><rect class="cls-7" x="232.9" y="65.96" width="65.13" height="21.74"/><circle class="cls-10" cx="262.82" cy="270.85" r="79.16"/></svg>